<svg id="Layer_1" data-name="Layer 1" xmlns="http://www.w3.org/2000/svg" viewBox="0 0 28.63 18.12"><defs><style>.cls-1{fill:#6441aa;}</style></defs><title>friends</title><path id="Subtraction_6" data-name="Subtraction 6" class="cls-1" d="M1.42,18.12H0a9,9,0,0,1,2.65-6.4A8.85,8.85,0,0,1,6.1,9.56a5.24,5.24,0,1,1,5.93,0,9.09,9.09,0,0,1,3.24,2,9.61,9.61,0,0,1,1.43-.64,5.25,5.25,0,1,1,5.93,0,9.1,9.1,0,0,1,6,7.23H27.19a7.65,7.65,0,0,0-7.52-6.31,7.51,7.51,0,0,0-3.42.8,8.92,8.92,0,0,1,1.87,5.5H16.71A7.57,7.57,0,0,0,15,13.36h0a3.87,3.87,0,0,0-1.12-1.16h0A7.62,7.62,0,0,0,4.47,12l-.11.07a4.63,4.63,0,0,0-1.6,1.69v0a7.6,7.6,0,0,0-1.35,4.33ZM19.67,2.74a3.83,3.83,0,1,0,3.82,3.82,3.82,3.82,0,0,0-3.82-3.82ZM9.07,1.42a3.82,3.82,0,1,0,3.82,3.82A3.82,3.82,0,0,0,9.07,1.42Z"/></svg>