<svg class="a-icon-games" id="Layer_1" data-name="Layer 1" xmlns="http://www.w3.org/2000/svg" viewBox="0 0 27.29 17.88"><defs><style>.cls-1{fill:#6441aa;}</style></defs><title>games</title><g id="console"><g id="Group_63" data-name="Group 63"><g id="Group_62" data-name="Group 62"><path id="Path_28" data-name="Path 28" class="cls-1" d="M27.25,12.37a25.55,25.55,0,0,0-.75-4.92A19.23,19.23,0,0,0,25,3.31C22.6-.86,20-.21,16.93.6a21.78,21.78,0,0,1-3.12.61h-.34A22.33,22.33,0,0,1,10.35.6c-3.08-.78-5.66-1.46-8,2.75A17.46,17.46,0,0,0,.78,7.49,24.78,24.78,0,0,0,0,12.41a9.19,9.19,0,0,0,.47,3.86A2.56,2.56,0,0,0,2.14,17.8a3.31,3.31,0,0,0,2.17-.24,16.21,16.21,0,0,0,4.35-3.08,7.44,7.44,0,0,1,5-1.53,7.48,7.48,0,0,1,5,1.53A16,16,0,0,0,23,17.56a3.52,3.52,0,0,0,2.17.24,2.53,2.53,0,0,0,1.63-1.56A9.09,9.09,0,0,0,27.25,12.37Zm-1.63,3.39a1.3,1.3,0,0,1-.81.85,2.29,2.29,0,0,1-1.39-.17,13.9,13.9,0,0,1-3.94-2.81,8.44,8.44,0,0,0-5.84-1.94,9,9,0,0,0-5.87,1.86,14,14,0,0,1-3.93,2.82,2.16,2.16,0,0,1-1.39.17,1.33,1.33,0,0,1-.82-.85,8.14,8.14,0,0,1-.34-3.25A23.85,23.85,0,0,1,2,7.76,16.44,16.44,0,0,1,3.43,3.92c1.87-3.36,4-2.81,6.62-2.13a20.71,20.71,0,0,0,3.32.64h.51a20.12,20.12,0,0,0,3.36-.64C19.82,1.14,22,.56,23.85,3.92a15.44,15.44,0,0,1,1.43,3.84A25.44,25.44,0,0,1,26,12.44,7.8,7.8,0,0,1,25.62,15.76Z" transform="translate(0)"/></g></g><g id="Group_65" data-name="Group 65"><g id="Group_64" data-name="Group 64"><path id="Path_29" data-name="Path 29" class="cls-1" d="M10.52,5.75A2.07,2.07,0,0,0,9.3,5.18,2,2,0,0,0,8.76,4l0,0a1.86,1.86,0,0,0-1.39-.58A2,2,0,0,0,5.94,4a2,2,0,0,0-.58,1.22,2,2,0,0,0-1.22.54l0,0a2,2,0,0,0-.58,1.4,2,2,0,0,0,.58,1.39,1.87,1.87,0,0,0,1.25.57,1.81,1.81,0,0,0,.58,1.22,1.89,1.89,0,0,0,1.39.58,2,2,0,0,0,1.39-.58A2,2,0,0,0,9.3,9.11a1.78,1.78,0,0,0,1.22-.57,2,2,0,0,0,.58-1.39A2,2,0,0,0,10.52,5.75Zm-.85,1.9a.65.65,0,0,1-.51.2H8.69A.65.65,0,0,0,8,8.5H8v.44A.71.71,0,1,1,6.62,9V8.47A.65.65,0,0,0,6,7.82H5.5a.71.71,0,0,1-.71-.69.72.72,0,0,1,.2-.5l0,0a.78.78,0,0,1,.48-.17H6a.65.65,0,0,0,.65-.64h0V5.31a.71.71,0,0,1,.73-.71.7.7,0,0,1,.49.2l0,0A.78.78,0,0,1,8,5.31v.47a.65.65,0,0,0,.65.65h.47a.73.73,0,0,1,.72.73.75.75,0,0,1-.21.49Z" transform="translate(0)"/></g></g><g id="Group_67" data-name="Group 67"><g id="Group_66" data-name="Group 66"><circle id="Ellipse_9" data-name="Ellipse 9" class="cls-1" cx="19.55" cy="4.74" r="1.19"/></g></g><g id="Group_69" data-name="Group 69"><g id="Group_68" data-name="Group 68"><circle id="Ellipse_10" data-name="Ellipse 10" class="cls-1" cx="19.55" cy="9.55" r="1.19"/></g></g><g id="Group_71" data-name="Group 71"><g id="Group_70" data-name="Group 70"><circle id="Ellipse_11" data-name="Ellipse 11" class="cls-1" cx="17.14" cy="7.15" r="1.19"/></g></g><g id="Group_73" data-name="Group 73"><g id="Group_72" data-name="Group 72"><circle id="Ellipse_12" data-name="Ellipse 12" class="cls-1" cx="21.95" cy="7.15" r="1.19"/></g></g></g></svg>