<svg id="Layer_1" data-name="Layer 1" xmlns="http://www.w3.org/2000/svg" viewBox="0 0 25.86 25.46"><defs><style>.cls-1{fill:#6441aa;}</style></defs><title>group</title><path class="cls-1" d="M12,14.9c-.2-.24-.4-.47-.62-.69a1.06,1.06,0,0,0,.33.53A1.18,1.18,0,0,0,12,14.9Z"/><path class="cls-1" d="M12.41,20.77a1.09,1.09,0,0,0,1.09.88c.28-.11.54-.23.81-.36a1.08,1.08,0,0,0,.27-.93,11.69,11.69,0,0,0-.42-1.57,7,7,0,0,1-2,1A8.6,8.6,0,0,1,12.41,20.77Z"/><path class="cls-1" d="M15.22,10.29a7.37,7.37,0,0,0,.82,0,1.06,1.06,0,0,0,.82-.57A10.83,10.83,0,0,0,15.22,10.29Z"/><path class="cls-1" d="M10.48,4.81a2.41,2.41,0,1,0-2.4-2.4A2.4,2.4,0,0,0,10.48,4.81Z"/><path class="cls-1" d="M8.69,14.81A9.67,9.67,0,0,1,12,19.3a6.82,6.82,0,0,0,2-1,12.2,12.2,0,0,0-1.56-2.83h-.06A1.62,1.62,0,0,1,10.78,14a2.17,2.17,0,0,1,0-.36q-.33-.3-.69-.57a1.28,1.28,0,0,0,.11-.31l.93-3.68a7.55,7.55,0,0,0,3.12,1.11A11.28,11.28,0,0,1,17,9.11s0-.06,0-.09a1.1,1.1,0,0,0-1.22-1,5.3,5.3,0,0,1-4.33-1.47l-.84-.82h0l0,0,0,0,0,0,0,0,0,0-.05,0-.05,0,0,0h-.05l0,0H9.58l-1.17.29A10.65,10.65,0,0,0,2.68,9.4a1.1,1.1,0,0,0,1.71,1.39A8.45,8.45,0,0,1,8,8.22L7,12a1.7,1.7,0,0,0,.15,1.19l-.22.29a7.29,7.29,0,0,1-5.77,2.84H1.09a1.12,1.12,0,0,0,0,2.24h.08a9.55,9.55,0,0,0,7.53-3.73Z"/><path class="cls-1" d="M19.33,8.6a2.41,2.41,0,1,0-2.41-2.4A2.4,2.4,0,0,0,19.33,8.6Z"/><path class="cls-1" d="M25.85,12.81a1.09,1.09,0,0,0-1.09-1h-.13l-.62,0a5.34,5.34,0,0,1-3.71-1.5l-.85-.82h0l-.05,0,0,0-.05,0,0,0,0,0-.06,0,0,0-.05,0,0,0H19l-.07,0h-.48l-1.17.29a10.66,10.66,0,0,0-5.74,3.62,1.12,1.12,0,0,0,.16,1.56,1.14,1.14,0,0,0,.7.24,1.07,1.07,0,0,0,.85-.41A8.6,8.6,0,0,1,16.79,12l-.94,3.78A1.62,1.62,0,0,0,16,17l-.22.29A7.27,7.27,0,0,1,10,20.11l-.06,0h0a1.12,1.12,0,0,0,0,2.24H10a9.5,9.5,0,0,0,7.52-3.73h0a9.67,9.67,0,0,1,3.72,6,1.1,1.1,0,0,0,1.08.9l.21,0a1.11,1.11,0,0,0,.88-1.29A11.86,11.86,0,0,0,19,16.9a2.83,2.83,0,0,0,.11-.31L20,12.91a7.52,7.52,0,0,0,4,1.17,8.46,8.46,0,0,0,.87-.05A1.1,1.1,0,0,0,25.85,12.81Z"/></svg>