<svg id="Layer_1" data-name="Layer 1" xmlns="http://www.w3.org/2000/svg" viewBox="0 0 26.05 24.92"><defs><style>.cls-1{fill:#6441aa;}</style></defs><title>logout</title><g id="logout"><path id="Path_11" data-name="Path 11" class="cls-1" d="M25.21,13.31H8.78a.85.85,0,0,1,0-1.7H25.21a.85.85,0,0,1,0,1.7Z"/><path id="Path_12" data-name="Path 12" class="cls-1" d="M13.31,17.84a.87.87,0,0,1-.6-.24L8.18,13.06a.85.85,0,0,1,0-1.2l4.53-4.53a.85.85,0,0,1,1.2.07.84.84,0,0,1,0,1.13L10,12.46l3.93,3.93a.85.85,0,0,1,0,1.2.84.84,0,0,1-.6.25Z"/><path id="Path_13" data-name="Path 13" class="cls-1" d="M12.46,24.92a12.46,12.46,0,1,1,11.6-17A.85.85,0,0,1,23.59,9a.84.84,0,0,1-1.1-.47v0a10.77,10.77,0,1,0,0,7.88.84.84,0,0,1,1.09-.49.85.85,0,0,1,.5,1.09v0A12.39,12.39,0,0,1,12.46,24.92Z"/></g></svg>