<svg id="Layer_1" data-name="Layer 1" xmlns="http://www.w3.org/2000/svg" viewBox="0 0 24.52 24.53"><defs><style>.cls-1{fill:#6441aa;}</style></defs><title>profile</title><g id="user"><g id="Group_51" data-name="Group 51"><path id="Path_10" data-name="Path 10" class="cls-1" d="M20.93,15.86a12.17,12.17,0,0,0-4.66-2.93A7.09,7.09,0,1,0,6.42,11.1a6.92,6.92,0,0,0,1.83,1.83A12.28,12.28,0,0,0,0,24.53H1.92a10.35,10.35,0,0,1,20.69-.21v.21h1.91A12.14,12.14,0,0,0,20.93,15.86Zm-8.67-3.59a5.18,5.18,0,1,1,5.17-5.18A5.18,5.18,0,0,1,12.26,12.27Z" transform="translate(0 0)"/></g></g></svg>