<svg class="a-icon-walker" id="Layer_1" data-name="Layer 1" xmlns="http://www.w3.org/2000/svg" viewBox="0 0 25.8 32.83"><defs><style>.cls-1{fill:#fff;}</style></defs><title>walker</title><g id="jogging"><path id="Path_5" data-name="Path 5" class="cls-1" d="M24.32,15.5a11.87,11.87,0,0,1-1.33.08,11.46,11.46,0,0,1-6.1-1.77l-1.38,5.57a2.45,2.45,0,0,1-.17.45,18,18,0,0,1,6.78,11,1.67,1.67,0,1,1-3.27.7s0-.05,0-.07a14.67,14.67,0,0,0-5.63-9v0A14.41,14.41,0,0,1,1.81,28.07H1.69a1.7,1.7,0,0,1,0-3.4h0l.09,0a11,11,0,0,0,8.73-4.31l.34-.44a2.5,2.5,0,0,1-.23-1.8l1.44-5.72A12.76,12.76,0,0,0,6.7,16.32a1.67,1.67,0,1,1-2.65-2l.06-.07a16.14,16.14,0,0,1,8.68-5.5l1.77-.43h0l.09,0h.63l.1,0,.07,0,.08,0,.08,0,.07,0,.07,0,.07,0,.07,0a.18.18,0,0,0,.07.05l.05.05.07.06,0,0L17.39,10a8,8,0,0,0,6.55,2.22,1.67,1.67,0,0,1,.38,3.32ZM15.91,7.29a3.65,3.65,0,1,0-3.64-3.65,3.65,3.65,0,0,0,3.64,3.65Z"/></g></svg>